<?xml version="1.0" encoding="UTF-8" standalone="no"?>
<!DOCTYPE svg PUBLIC "-//W3C//DTD SVG 1.1//EN"
 "http://www.w3.org/Graphics/SVG/1.1/DTD/svg11.dtd">
<!-- Generated by graphviz version 2.40.1 (20161225.0304)
 -->
<!-- Title: dependencies Pages: 1 -->
<svg width="631pt" height="284pt"
 viewBox="0.00 0.00 631.00 284.00" xmlns="http://www.w3.org/2000/svg" xmlns:xlink="http://www.w3.org/1999/xlink">
<g id="graph0" class="graph" transform="scale(1 1) rotate(0) translate(4 280)">
<title>dependencies</title>
<polygon fill="#ffffff" stroke="transparent" points="-4,4 -4,-280 627,-280 627,4 -4,4"/>
<text text-anchor="start" x="290.5091" y="-42.4" font-family="sans-serif" font-weight="bold" font-size="14.00" fill="#000000">Legend</text>
<polygon fill="#ffffb3" stroke="transparent" points="77.5,-10 77.5,-30 97.5,-30 97.5,-10 77.5,-10"/>
<text text-anchor="start" x="101.129" y="-15.4" font-family="sans-serif" font-size="14.00" fill="#000000"> &#160;Declarations</text>
<polygon fill="#8dd3c7" stroke="transparent" points="190.5,-10 190.5,-30 210.5,-30 210.5,-10 190.5,-10"/>
<text text-anchor="start" x="214.2251" y="-15.4" font-family="sans-serif" font-size="14.00" fill="#000000"> &#160;Module</text>
<polygon fill="#80b1d3" stroke="transparent" points="276.5,-10 276.5,-30 296.5,-30 296.5,-10 276.5,-10"/>
<text text-anchor="start" x="300.2812" y="-15.4" font-family="sans-serif" font-size="14.00" fill="#000000"> &#160;Bootstrap</text>
<polygon fill="#fdb462" stroke="transparent" points="373.5,-10 373.5,-30 393.5,-30 393.5,-10 373.5,-10"/>
<text text-anchor="start" x="397.1732" y="-15.4" font-family="sans-serif" font-size="14.00" fill="#000000"> &#160;Providers</text>
<polygon fill="#fb8072" stroke="transparent" points="469.5,-10 469.5,-30 489.5,-30 489.5,-10 469.5,-10"/>
<text text-anchor="start" x="493.2258" y="-15.4" font-family="sans-serif" font-size="14.00" fill="#000000"> &#160;Exports</text>
<g id="clust1" class="cluster">
<title>cluster_NgxIntlTelInputModule</title>
<polygon fill="none" stroke="#000000" stroke-dasharray="1,5" points="8,-70 8,-268 615,-268 615,-70 8,-70"/>
</g>
<g id="clust2" class="cluster">
<title>cluster_NgxIntlTelInputModule_declarations</title>
<polygon fill="none" stroke="#000000" points="417,-78 417,-130 607,-130 607,-78 417,-78"/>
</g>
<g id="clust4" class="cluster">
<title>cluster_NgxIntlTelInputModule_imports</title>
<polygon fill="none" stroke="#000000" points="16,-78 16,-130 409,-130 409,-78 16,-78"/>
</g>
<g id="clust5" class="cluster">
<title>cluster_NgxIntlTelInputModule_exports</title>
<polygon fill="none" stroke="#000000" points="188,-208 188,-260 380,-260 380,-208 188,-208"/>
</g>
<!-- NgxIntlTelInputComponent -->
<g id="node1" class="node">
<title>NgxIntlTelInputComponent</title>
<polygon fill="#ffffb3" stroke="#000000" points="598.5898,-122 425.4102,-122 425.4102,-86 598.5898,-86 598.5898,-122"/>
<text text-anchor="middle" x="512" y="-99.8" font-family="Times,serif" font-size="14.00" fill="#000000">NgxIntlTelInputComponent</text>
</g>
<!-- NgxIntlTelInputModule -->
<g id="node2" class="node">
<title>NgxIntlTelInputModule</title>
<polygon fill="#8dd3c7" stroke="#000000" points="359.8075,-187 356.8075,-191 335.8075,-191 332.8075,-187 208.1925,-187 208.1925,-151 359.8075,-151 359.8075,-187"/>
<text text-anchor="middle" x="284" y="-164.8" font-family="Times,serif" font-size="14.00" fill="#000000">NgxIntlTelInputModule</text>
</g>
<!-- NgxIntlTelInputComponent&#45;&gt;NgxIntlTelInputModule -->
<g id="edge1" class="edge">
<title>NgxIntlTelInputComponent&#45;&gt;NgxIntlTelInputModule</title>
<path fill="none" stroke="#000000" d="M512,-122.1061C512,-141.3391 512,-169 512,-169 512,-169 369.9207,-169 369.9207,-169"/>
<polygon fill="#000000" stroke="#000000" points="369.9207,-165.5001 359.9207,-169 369.9207,-172.5001 369.9207,-165.5001"/>
</g>
<!-- NgxIntlTelInputComponent  -->
<g id="node6" class="node">
<title>NgxIntlTelInputComponent </title>
<polygon fill="#fb8072" stroke="#000000" points="372.0903,-252 195.9097,-252 195.9097,-216 372.0903,-216 372.0903,-252"/>
<text text-anchor="middle" x="284" y="-229.8" font-family="Times,serif" font-size="14.00" fill="#000000">NgxIntlTelInputComponent </text>
</g>
<!-- NgxIntlTelInputModule&#45;&gt;NgxIntlTelInputComponent  -->
<g id="edge5" class="edge">
<title>NgxIntlTelInputModule&#45;&gt;NgxIntlTelInputComponent </title>
<path fill="none" stroke="#000000" stroke-dasharray="5,2" d="M284,-187.1061C284,-187.1061 284,-205.991 284,-205.991"/>
<polygon fill="#000000" stroke="#000000" points="280.5001,-205.9909 284,-215.991 287.5001,-205.991 280.5001,-205.9909"/>
</g>
<!-- CommonModule -->
<g id="node3" class="node">
<title>CommonModule</title>
<polygon fill="#8dd3c7" stroke="#000000" points="400.6681,-122 397.6681,-126 376.6681,-126 373.6681,-122 289.3319,-122 289.3319,-86 400.6681,-86 400.6681,-122"/>
<text text-anchor="middle" x="345" y="-99.8" font-family="Times,serif" font-size="14.00" fill="#000000">CommonModule</text>
</g>
<!-- CommonModule&#45;&gt;NgxIntlTelInputModule -->
<g id="edge2" class="edge">
<title>CommonModule&#45;&gt;NgxIntlTelInputModule</title>
<path fill="none" stroke="#000000" d="M324.4099,-122.1061C324.4099,-122.1061 324.4099,-140.991 324.4099,-140.991"/>
<polygon fill="#000000" stroke="#000000" points="320.91,-140.9909 324.4099,-150.991 327.91,-140.991 320.91,-140.9909"/>
</g>
<!-- FormsModule -->
<g id="node4" class="node">
<title>FormsModule</title>
<polygon fill="#8dd3c7" stroke="#000000" points="271.8288,-122 268.8288,-126 247.8288,-126 244.8288,-122 176.1712,-122 176.1712,-86 271.8288,-86 271.8288,-122"/>
<text text-anchor="middle" x="224" y="-99.8" font-family="Times,serif" font-size="14.00" fill="#000000">FormsModule</text>
</g>
<!-- FormsModule&#45;&gt;NgxIntlTelInputModule -->
<g id="edge3" class="edge">
<title>FormsModule&#45;&gt;NgxIntlTelInputModule</title>
<path fill="none" stroke="#000000" d="M240.0053,-122.1061C240.0053,-122.1061 240.0053,-140.991 240.0053,-140.991"/>
<polygon fill="#000000" stroke="#000000" points="236.5053,-140.9909 240.0053,-150.991 243.5053,-140.991 236.5053,-140.9909"/>
</g>
<!-- BsDropdownModule -->
<g id="node5" class="node">
<title>BsDropdownModule</title>
<polygon fill="#8dd3c7" stroke="#000000" points="158.205,-122 155.205,-126 134.205,-126 131.205,-122 23.795,-122 23.795,-86 158.205,-86 158.205,-122"/>
<text text-anchor="middle" x="91" y="-99.8" font-family="Times,serif" font-size="14.00" fill="#000000">BsDropdownModule</text>
</g>
<!-- BsDropdownModule&#45;&gt;NgxIntlTelInputModule -->
<g id="edge4" class="edge">
<title>BsDropdownModule&#45;&gt;NgxIntlTelInputModule</title>
<path fill="none" stroke="#000000" d="M91,-122.1061C91,-141.3391 91,-169 91,-169 91,-169 198.2752,-169 198.2752,-169"/>
<polygon fill="#000000" stroke="#000000" points="198.2753,-172.5001 208.2752,-169 198.2752,-165.5001 198.2753,-172.5001"/>
</g>
</g>
</svg>
