<?xml version="1.0" encoding="UTF-8" standalone="no"?>
<!DOCTYPE svg PUBLIC "-//W3C//DTD SVG 1.1//EN"
 "http://www.w3.org/Graphics/SVG/1.1/DTD/svg11.dtd">
<!-- Generated by graphviz version 2.40.1 (20161225.0304)
 -->
<!-- Title: dependencies Pages: 1 -->
<svg width="1092pt" height="349pt"
 viewBox="0.00 0.00 1092.00 349.00" xmlns="http://www.w3.org/2000/svg" xmlns:xlink="http://www.w3.org/1999/xlink">
<g id="graph0" class="graph" transform="scale(1 1) rotate(0) translate(4 345)">
<title>dependencies</title>
<polygon fill="#ffffff" stroke="transparent" points="-4,4 -4,-345 1088,-345 1088,4 -4,4"/>
<text text-anchor="start" x="521.0091" y="-42.4" font-family="sans-serif" font-weight="bold" font-size="14.00" fill="#000000">Legend</text>
<polygon fill="#ffffb3" stroke="transparent" points="308,-10 308,-30 328,-30 328,-10 308,-10"/>
<text text-anchor="start" x="331.629" y="-15.4" font-family="sans-serif" font-size="14.00" fill="#000000"> &#160;Declarations</text>
<polygon fill="#8dd3c7" stroke="transparent" points="421,-10 421,-30 441,-30 441,-10 421,-10"/>
<text text-anchor="start" x="444.7251" y="-15.4" font-family="sans-serif" font-size="14.00" fill="#000000"> &#160;Module</text>
<polygon fill="#80b1d3" stroke="transparent" points="507,-10 507,-30 527,-30 527,-10 507,-10"/>
<text text-anchor="start" x="530.7812" y="-15.4" font-family="sans-serif" font-size="14.00" fill="#000000"> &#160;Bootstrap</text>
<polygon fill="#fdb462" stroke="transparent" points="604,-10 604,-30 624,-30 624,-10 604,-10"/>
<text text-anchor="start" x="627.6732" y="-15.4" font-family="sans-serif" font-size="14.00" fill="#000000"> &#160;Providers</text>
<polygon fill="#fb8072" stroke="transparent" points="700,-10 700,-30 720,-30 720,-10 700,-10"/>
<text text-anchor="start" x="723.7258" y="-15.4" font-family="sans-serif" font-size="14.00" fill="#000000"> &#160;Exports</text>
<g id="clust1" class="cluster">
<title>cluster_AppModule</title>
<polygon fill="none" stroke="#000000" stroke-dasharray="1,5" points="8,-70 8,-333 572,-333 572,-70 8,-70"/>
</g>
<g id="clust3" class="cluster">
<title>cluster_AppModule_imports</title>
<polygon fill="none" stroke="#000000" points="16,-78 16,-195 564,-195 564,-78 16,-78"/>
</g>
<g id="clust5" class="cluster">
<title>cluster_AppModule_bootstrap</title>
<polygon fill="none" stroke="#000000" points="303,-273 303,-325 427,-325 427,-273 303,-273"/>
</g>
<g id="clust7" class="cluster">
<title>cluster_NgxIntlTelInputModule</title>
<polygon fill="none" stroke="#000000" stroke-dasharray="1,5" points="580,-70 580,-138 1076,-138 1076,-70 580,-70"/>
</g>
<g id="clust9" class="cluster">
<title>cluster_NgxIntlTelInputModule_imports</title>
<polygon fill="none" stroke="#000000" points="788,-78 788,-130 1068,-130 1068,-78 788,-78"/>
</g>
<g id="clust10" class="cluster">
<title>cluster_NgxIntlTelInputModule_exports</title>
<polygon fill="none" stroke="#000000" points="588,-78 588,-130 780,-130 780,-78 588,-78"/>
</g>
<!-- BrowserModule -->
<g id="node1" class="node">
<title>BrowserModule</title>
<polygon fill="#8dd3c7" stroke="#000000" points="442.4734,-122 439.4734,-126 418.4734,-126 415.4734,-122 335.5266,-122 335.5266,-86 442.4734,-86 442.4734,-122"/>
<text text-anchor="middle" x="389" y="-99.8" font-family="Times,serif" font-size="14.00" fill="#000000">BrowserModule</text>
</g>
<!-- AppModule -->
<g id="node6" class="node">
<title>AppModule</title>
<polygon fill="#8dd3c7" stroke="#000000" points="406.6571,-252 403.6571,-256 382.6571,-256 379.6571,-252 323.3429,-252 323.3429,-216 406.6571,-216 406.6571,-252"/>
<text text-anchor="middle" x="365" y="-229.8" font-family="Times,serif" font-size="14.00" fill="#000000">AppModule</text>
</g>
<!-- BrowserModule&#45;&gt;AppModule -->
<g id="edge1" class="edge">
<title>BrowserModule&#45;&gt;AppModule</title>
<path fill="none" stroke="#000000" d="M358.4577,-122.0759C358.4577,-122.0759 358.4577,-205.6585 358.4577,-205.6585"/>
<polygon fill="#000000" stroke="#000000" points="354.9578,-205.6585 358.4577,-215.6585 361.9578,-205.6585 354.9578,-205.6585"/>
</g>
<!-- FormsModule -->
<g id="node2" class="node">
<title>FormsModule</title>
<polygon fill="#8dd3c7" stroke="#000000" points="555.8288,-122 552.8288,-126 531.8288,-126 528.8288,-122 460.1712,-122 460.1712,-86 555.8288,-86 555.8288,-122"/>
<text text-anchor="middle" x="508" y="-99.8" font-family="Times,serif" font-size="14.00" fill="#000000">FormsModule</text>
</g>
<!-- NgxIntlTelInputModule -->
<g id="node4" class="node">
<title>NgxIntlTelInputModule</title>
<polygon fill="#8dd3c7" stroke="#000000" points="555.8075,-187 552.8075,-191 531.8075,-191 528.8075,-187 404.1925,-187 404.1925,-151 555.8075,-151 555.8075,-187"/>
<text text-anchor="middle" x="480" y="-164.8" font-family="Times,serif" font-size="14.00" fill="#000000">NgxIntlTelInputModule</text>
</g>
<!-- FormsModule&#45;&gt;NgxIntlTelInputModule -->
<g id="edge8" class="edge">
<title>FormsModule&#45;&gt;NgxIntlTelInputModule</title>
<path fill="none" stroke="#000000" d="M523.881,-122.1061C523.881,-122.1061 523.881,-140.991 523.881,-140.991"/>
<polygon fill="#000000" stroke="#000000" points="520.3811,-140.9909 523.881,-150.991 527.3811,-140.991 520.3811,-140.9909"/>
</g>
<!-- FormsModule&#45;&gt;AppModule -->
<g id="edge2" class="edge">
<title>FormsModule&#45;&gt;AppModule</title>
<path fill="none" stroke="#000000" d="M492.1085,-122.0449C492.1085,-129.749 492.1085,-137 492.1085,-137 492.1085,-137 381.402,-137 381.402,-137 381.402,-137 381.402,-205.755 381.402,-205.755"/>
<polygon fill="#000000" stroke="#000000" points="377.9021,-205.755 381.402,-215.755 384.9021,-205.7551 377.9021,-205.755"/>
</g>
<!-- HttpModule -->
<g id="node3" class="node">
<title>HttpModule</title>
<polygon fill="#8dd3c7" stroke="#000000" points="108.4387,-122 105.4387,-126 84.4387,-126 81.4387,-122 23.5613,-122 23.5613,-86 108.4387,-86 108.4387,-122"/>
<text text-anchor="middle" x="66" y="-99.8" font-family="Times,serif" font-size="14.00" fill="#000000">HttpModule</text>
</g>
<!-- HttpModule&#45;&gt;AppModule -->
<g id="edge3" class="edge">
<title>HttpModule&#45;&gt;AppModule</title>
<path fill="none" stroke="#000000" d="M66,-122.0759C66,-157.7964 66,-234 66,-234 66,-234 313.1105,-234 313.1105,-234"/>
<polygon fill="#000000" stroke="#000000" points="313.1105,-237.5001 323.1105,-234 313.1105,-230.5001 313.1105,-237.5001"/>
</g>
<!-- NgxIntlTelInputModule&#45;&gt;AppModule -->
<g id="edge4" class="edge">
<title>NgxIntlTelInputModule&#45;&gt;AppModule</title>
<path fill="none" stroke="#000000" d="M413.1489,-187.1061C413.1489,-206.3391 413.1489,-234 413.1489,-234 413.1489,-234 412.5194,-234 412.5194,-234"/>
<polygon fill="#000000" stroke="#000000" points="416.8543,-230.5002 406.8542,-234 416.8542,-237.5002 416.8543,-230.5002"/>
</g>
<!-- NgxIntlTelInputComponent  -->
<g id="node10" class="node">
<title>NgxIntlTelInputComponent </title>
<polygon fill="#fb8072" stroke="#000000" points="772.0903,-122 595.9097,-122 595.9097,-86 772.0903,-86 772.0903,-122"/>
<text text-anchor="middle" x="684" y="-99.8" font-family="Times,serif" font-size="14.00" fill="#000000">NgxIntlTelInputComponent </text>
</g>
<!-- NgxIntlTelInputModule&#45;&gt;NgxIntlTelInputComponent  -->
<g id="edge10" class="edge">
<title>NgxIntlTelInputModule&#45;&gt;NgxIntlTelInputComponent </title>
<path fill="none" stroke="#000000" stroke-dasharray="5,2" d="M555.6722,-160C613.7285,-160 684,-160 684,-160 684,-160 684,-132.027 684,-132.027"/>
<polygon fill="#000000" stroke="#000000" points="687.5001,-132.027 684,-122.027 680.5001,-132.027 687.5001,-132.027"/>
</g>
<!-- BsDropdownModule.forRoot() -->
<g id="node5" class="node">
<title>BsDropdownModule.forRoot()</title>
<polygon fill="#8dd3c7" stroke="#000000" points="317.0749,-122 314.0749,-126 293.0749,-126 290.0749,-122 126.9251,-122 126.9251,-86 317.0749,-86 317.0749,-122"/>
<text text-anchor="middle" x="222" y="-99.8" font-family="Times,serif" font-size="14.00" fill="#000000">BsDropdownModule.forRoot()</text>
</g>
<!-- BsDropdownModule.forRoot()&#45;&gt;AppModule -->
<g id="edge5" class="edge">
<title>BsDropdownModule.forRoot()&#45;&gt;AppModule</title>
<path fill="none" stroke="#000000" d="M317.4449,-104C324.7416,-104 329.3426,-104 329.3426,-104 329.3426,-104 329.3426,-205.9241 329.3426,-205.9241"/>
<polygon fill="#000000" stroke="#000000" points="325.8426,-205.924 329.3426,-215.9241 332.8426,-205.9241 325.8426,-205.924"/>
</g>
<!-- AppComponent  -->
<g id="node7" class="node">
<title>AppComponent </title>
<polygon fill="#80b1d3" stroke="#000000" points="419.439,-317 310.561,-317 310.561,-281 419.439,-281 419.439,-317"/>
<text text-anchor="middle" x="365" y="-294.8" font-family="Times,serif" font-size="14.00" fill="#000000">AppComponent </text>
</g>
<!-- AppModule&#45;&gt;AppComponent  -->
<g id="edge6" class="edge">
<title>AppModule&#45;&gt;AppComponent </title>
<path fill="none" stroke="#000000" stroke-dasharray="1,5" d="M365,-252.1061C365,-252.1061 365,-270.991 365,-270.991"/>
<polygon fill="#000000" stroke="#000000" points="361.5001,-270.9909 365,-280.991 368.5001,-270.991 361.5001,-270.9909"/>
</g>
<!-- CommonModule -->
<g id="node8" class="node">
<title>CommonModule</title>
<polygon fill="#8dd3c7" stroke="#000000" points="907.6681,-122 904.6681,-126 883.6681,-126 880.6681,-122 796.3319,-122 796.3319,-86 907.6681,-86 907.6681,-122"/>
<text text-anchor="middle" x="852" y="-99.8" font-family="Times,serif" font-size="14.00" fill="#000000">CommonModule</text>
</g>
<!-- CommonModule&#45;&gt;NgxIntlTelInputModule -->
<g id="edge7" class="edge">
<title>CommonModule&#45;&gt;NgxIntlTelInputModule</title>
<path fill="none" stroke="#000000" d="M852,-122.1061C852,-141.3391 852,-169 852,-169 852,-169 565.7281,-169 565.7281,-169"/>
<polygon fill="#000000" stroke="#000000" points="565.7282,-165.5001 555.7281,-169 565.7281,-172.5001 565.7282,-165.5001"/>
</g>
<!-- BsDropdownModule -->
<g id="node9" class="node">
<title>BsDropdownModule</title>
<polygon fill="#8dd3c7" stroke="#000000" points="1060.205,-122 1057.205,-126 1036.205,-126 1033.205,-122 925.795,-122 925.795,-86 1060.205,-86 1060.205,-122"/>
<text text-anchor="middle" x="993" y="-99.8" font-family="Times,serif" font-size="14.00" fill="#000000">BsDropdownModule</text>
</g>
<!-- BsDropdownModule&#45;&gt;NgxIntlTelInputModule -->
<g id="edge9" class="edge">
<title>BsDropdownModule&#45;&gt;NgxIntlTelInputModule</title>
<path fill="none" stroke="#000000" d="M993,-122.2921C993,-144.2057 993,-178 993,-178 993,-178 565.6949,-178 565.6949,-178"/>
<polygon fill="#000000" stroke="#000000" points="565.695,-174.5001 555.6949,-178 565.6949,-181.5001 565.695,-174.5001"/>
</g>
</g>
</svg>
