<?xml version="1.0" encoding="UTF-8" standalone="no"?>
<!DOCTYPE svg PUBLIC "-//W3C//DTD SVG 1.1//EN"
 "http://www.w3.org/Graphics/SVG/1.1/DTD/svg11.dtd">
<!-- Generated by graphviz version 2.40.1 (20161225.0304)
 -->
<!-- Title: dependencies Pages: 1 -->
<svg width="886pt" height="284pt"
 viewBox="0.00 0.00 886.00 284.00" xmlns="http://www.w3.org/2000/svg" xmlns:xlink="http://www.w3.org/1999/xlink">
<g id="graph0" class="graph" transform="scale(1 1) rotate(0) translate(4 280)">
<title>dependencies</title>
<polygon fill="#ffffff" stroke="transparent" points="-4,4 -4,-280 882,-280 882,4 -4,4"/>
<text text-anchor="start" x="418.0091" y="-42.4" font-family="sans-serif" font-weight="bold" font-size="14.00" fill="#000000">Legend</text>
<polygon fill="#ffffb3" stroke="transparent" points="205,-10 205,-30 225,-30 225,-10 205,-10"/>
<text text-anchor="start" x="228.629" y="-15.4" font-family="sans-serif" font-size="14.00" fill="#000000"> &#160;Declarations</text>
<polygon fill="#8dd3c7" stroke="transparent" points="318,-10 318,-30 338,-30 338,-10 318,-10"/>
<text text-anchor="start" x="341.7251" y="-15.4" font-family="sans-serif" font-size="14.00" fill="#000000"> &#160;Module</text>
<polygon fill="#80b1d3" stroke="transparent" points="404,-10 404,-30 424,-30 424,-10 404,-10"/>
<text text-anchor="start" x="427.7812" y="-15.4" font-family="sans-serif" font-size="14.00" fill="#000000"> &#160;Bootstrap</text>
<polygon fill="#fdb462" stroke="transparent" points="501,-10 501,-30 521,-30 521,-10 501,-10"/>
<text text-anchor="start" x="524.6732" y="-15.4" font-family="sans-serif" font-size="14.00" fill="#000000"> &#160;Providers</text>
<polygon fill="#fb8072" stroke="transparent" points="597,-10 597,-30 617,-30 617,-10 597,-10"/>
<text text-anchor="start" x="620.7258" y="-15.4" font-family="sans-serif" font-size="14.00" fill="#000000"> &#160;Exports</text>
<g id="clust1" class="cluster">
<title>cluster_AppModule</title>
<polygon fill="none" stroke="#000000" stroke-dasharray="1,5" points="8,-70 8,-268 870,-268 870,-70 8,-70"/>
</g>
<g id="clust2" class="cluster">
<title>cluster_AppModule_declarations</title>
<polygon fill="none" stroke="#000000" points="740,-78 740,-130 862,-130 862,-78 740,-78"/>
</g>
<g id="clust4" class="cluster">
<title>cluster_AppModule_imports</title>
<polygon fill="none" stroke="#000000" points="16,-78 16,-130 732,-130 732,-78 16,-78"/>
</g>
<g id="clust6" class="cluster">
<title>cluster_AppModule_bootstrap</title>
<polygon fill="none" stroke="#000000" points="436,-208 436,-260 560,-260 560,-208 436,-208"/>
</g>
<!-- AppComponent -->
<g id="node1" class="node">
<title>AppComponent</title>
<polygon fill="#ffffb3" stroke="#000000" points="853.9399,-122 748.0601,-122 748.0601,-86 853.9399,-86 853.9399,-122"/>
<text text-anchor="middle" x="801" y="-99.8" font-family="Times,serif" font-size="14.00" fill="#000000">AppComponent</text>
</g>
<!-- AppModule -->
<g id="node2" class="node">
<title>AppModule</title>
<polygon fill="#8dd3c7" stroke="#000000" points="539.6571,-187 536.6571,-191 515.6571,-191 512.6571,-187 456.3429,-187 456.3429,-151 539.6571,-151 539.6571,-187"/>
<text text-anchor="middle" x="498" y="-164.8" font-family="Times,serif" font-size="14.00" fill="#000000">AppModule</text>
</g>
<!-- AppComponent&#45;&gt;AppModule -->
<g id="edge1" class="edge">
<title>AppComponent&#45;&gt;AppModule</title>
<path fill="none" stroke="#000000" d="M801,-122.2843C801,-143.3211 801,-175 801,-175 801,-175 549.8127,-175 549.8127,-175"/>
<polygon fill="#000000" stroke="#000000" points="549.8128,-171.5001 539.8127,-175 549.8127,-178.5001 549.8128,-171.5001"/>
</g>
<!-- AppComponent  -->
<g id="node8" class="node">
<title>AppComponent </title>
<polygon fill="#80b1d3" stroke="#000000" points="552.439,-252 443.561,-252 443.561,-216 552.439,-216 552.439,-252"/>
<text text-anchor="middle" x="498" y="-229.8" font-family="Times,serif" font-size="14.00" fill="#000000">AppComponent </text>
</g>
<!-- AppModule&#45;&gt;AppComponent  -->
<g id="edge7" class="edge">
<title>AppModule&#45;&gt;AppComponent </title>
<path fill="none" stroke="#000000" stroke-dasharray="1,5" d="M498,-187.1061C498,-187.1061 498,-205.991 498,-205.991"/>
<polygon fill="#000000" stroke="#000000" points="494.5001,-205.9909 498,-215.991 501.5001,-205.991 494.5001,-205.9909"/>
</g>
<!-- BrowserModule -->
<g id="node3" class="node">
<title>BrowserModule</title>
<polygon fill="#8dd3c7" stroke="#000000" points="724.4734,-122 721.4734,-126 700.4734,-126 697.4734,-122 617.5266,-122 617.5266,-86 724.4734,-86 724.4734,-122"/>
<text text-anchor="middle" x="671" y="-99.8" font-family="Times,serif" font-size="14.00" fill="#000000">BrowserModule</text>
</g>
<!-- BrowserModule&#45;&gt;AppModule -->
<g id="edge2" class="edge">
<title>BrowserModule&#45;&gt;AppModule</title>
<path fill="none" stroke="#000000" d="M671,-122.0225C671,-139.3734 671,-163 671,-163 671,-163 549.8785,-163 549.8785,-163"/>
<polygon fill="#000000" stroke="#000000" points="549.8785,-159.5001 539.8785,-163 549.8784,-166.5001 549.8785,-159.5001"/>
</g>
<!-- FormsModule -->
<g id="node4" class="node">
<title>FormsModule</title>
<polygon fill="#8dd3c7" stroke="#000000" points="599.8288,-122 596.8288,-126 575.8288,-126 572.8288,-122 504.1712,-122 504.1712,-86 599.8288,-86 599.8288,-122"/>
<text text-anchor="middle" x="552" y="-99.8" font-family="Times,serif" font-size="14.00" fill="#000000">FormsModule</text>
</g>
<!-- FormsModule&#45;&gt;AppModule -->
<g id="edge3" class="edge">
<title>FormsModule&#45;&gt;AppModule</title>
<path fill="none" stroke="#000000" d="M522.0821,-122.1061C522.0821,-122.1061 522.0821,-140.991 522.0821,-140.991"/>
<polygon fill="#000000" stroke="#000000" points="518.5821,-140.9909 522.0821,-150.991 525.5821,-140.991 518.5821,-140.9909"/>
</g>
<!-- HttpModule -->
<g id="node5" class="node">
<title>HttpModule</title>
<polygon fill="#8dd3c7" stroke="#000000" points="486.4387,-122 483.4387,-126 462.4387,-126 459.4387,-122 401.5613,-122 401.5613,-86 486.4387,-86 486.4387,-122"/>
<text text-anchor="middle" x="444" y="-99.8" font-family="Times,serif" font-size="14.00" fill="#000000">HttpModule</text>
</g>
<!-- HttpModule&#45;&gt;AppModule -->
<g id="edge4" class="edge">
<title>HttpModule&#45;&gt;AppModule</title>
<path fill="none" stroke="#000000" d="M471.1953,-122.1061C471.1953,-122.1061 471.1953,-140.991 471.1953,-140.991"/>
<polygon fill="#000000" stroke="#000000" points="467.6954,-140.9909 471.1953,-150.991 474.6954,-140.991 467.6954,-140.9909"/>
</g>
<!-- NgxIntlTelInputModule -->
<g id="node6" class="node">
<title>NgxIntlTelInputModule</title>
<polygon fill="#8dd3c7" stroke="#000000" points="383.8075,-122 380.8075,-126 359.8075,-126 356.8075,-122 232.1925,-122 232.1925,-86 383.8075,-86 383.8075,-122"/>
<text text-anchor="middle" x="308" y="-99.8" font-family="Times,serif" font-size="14.00" fill="#000000">NgxIntlTelInputModule</text>
</g>
<!-- NgxIntlTelInputModule&#45;&gt;AppModule -->
<g id="edge5" class="edge">
<title>NgxIntlTelInputModule&#45;&gt;AppModule</title>
<path fill="none" stroke="#000000" d="M308,-122.0225C308,-139.3734 308,-163 308,-163 308,-163 446.3037,-163 446.3037,-163"/>
<polygon fill="#000000" stroke="#000000" points="446.3037,-166.5001 456.3037,-163 446.3037,-159.5001 446.3037,-166.5001"/>
</g>
<!-- BsDropdownModule.forRoot() -->
<g id="node7" class="node">
<title>BsDropdownModule.forRoot()</title>
<polygon fill="#8dd3c7" stroke="#000000" points="214.0749,-122 211.0749,-126 190.0749,-126 187.0749,-122 23.9251,-122 23.9251,-86 214.0749,-86 214.0749,-122"/>
<text text-anchor="middle" x="119" y="-99.8" font-family="Times,serif" font-size="14.00" fill="#000000">BsDropdownModule.forRoot()</text>
</g>
<!-- BsDropdownModule.forRoot()&#45;&gt;AppModule -->
<g id="edge6" class="edge">
<title>BsDropdownModule.forRoot()&#45;&gt;AppModule</title>
<path fill="none" stroke="#000000" d="M119,-122.2843C119,-143.3211 119,-175 119,-175 119,-175 445.9923,-175 445.9923,-175"/>
<polygon fill="#000000" stroke="#000000" points="445.9923,-178.5001 455.9923,-175 445.9923,-171.5001 445.9923,-178.5001"/>
</g>
</g>
</svg>
