<?xml version="1.0" encoding="UTF-8" standalone="no"?>
<!DOCTYPE svg PUBLIC "-//W3C//DTD SVG 1.1//EN"
 "http://www.w3.org/Graphics/SVG/1.1/DTD/svg11.dtd">
<!-- Generated by graphviz version 2.40.1 (20161225.0304)
 -->
<!-- Title: dependencies Pages: 1 -->
<svg width="678pt" height="284pt"
 viewBox="0.00 0.00 678.00 284.00" xmlns="http://www.w3.org/2000/svg" xmlns:xlink="http://www.w3.org/1999/xlink">
<g id="graph0" class="graph" transform="scale(1 1) rotate(0) translate(4 280)">
<title>dependencies</title>
<polygon fill="#ffffff" stroke="transparent" points="-4,4 -4,-280 674,-280 674,4 -4,4"/>
<text text-anchor="start" x="314.0091" y="-42.4" font-family="sans-serif" font-weight="bold" font-size="14.00" fill="#000000">Legend</text>
<polygon fill="#ffffb3" stroke="transparent" points="101,-10 101,-30 121,-30 121,-10 101,-10"/>
<text text-anchor="start" x="124.629" y="-15.4" font-family="sans-serif" font-size="14.00" fill="#000000"> &#160;Declarations</text>
<polygon fill="#8dd3c7" stroke="transparent" points="214,-10 214,-30 234,-30 234,-10 214,-10"/>
<text text-anchor="start" x="237.7251" y="-15.4" font-family="sans-serif" font-size="14.00" fill="#000000"> &#160;Module</text>
<polygon fill="#80b1d3" stroke="transparent" points="300,-10 300,-30 320,-30 320,-10 300,-10"/>
<text text-anchor="start" x="323.7812" y="-15.4" font-family="sans-serif" font-size="14.00" fill="#000000"> &#160;Bootstrap</text>
<polygon fill="#fdb462" stroke="transparent" points="397,-10 397,-30 417,-30 417,-10 397,-10"/>
<text text-anchor="start" x="420.6732" y="-15.4" font-family="sans-serif" font-size="14.00" fill="#000000"> &#160;Providers</text>
<polygon fill="#fb8072" stroke="transparent" points="493,-10 493,-30 513,-30 513,-10 493,-10"/>
<text text-anchor="start" x="516.7258" y="-15.4" font-family="sans-serif" font-size="14.00" fill="#000000"> &#160;Exports</text>
<g id="clust1" class="cluster">
<title>cluster_AppModule</title>
<polygon fill="none" stroke="#000000" stroke-dasharray="1,5" points="8,-70 8,-268 662,-268 662,-70 8,-70"/>
</g>
<g id="clust2" class="cluster">
<title>cluster_AppModule_declarations</title>
<polygon fill="none" stroke="#000000" points="532,-78 532,-130 654,-130 654,-78 532,-78"/>
</g>
<g id="clust4" class="cluster">
<title>cluster_AppModule_imports</title>
<polygon fill="none" stroke="#000000" points="16,-78 16,-130 524,-130 524,-78 16,-78"/>
</g>
<g id="clust6" class="cluster">
<title>cluster_AppModule_bootstrap</title>
<polygon fill="none" stroke="#000000" points="282,-208 282,-260 406,-260 406,-208 282,-208"/>
</g>
<!-- AppComponent -->
<g id="node1" class="node">
<title>AppComponent</title>
<polygon fill="#ffffb3" stroke="#000000" points="645.9399,-122 540.0601,-122 540.0601,-86 645.9399,-86 645.9399,-122"/>
<text text-anchor="middle" x="593" y="-99.8" font-family="Times,serif" font-size="14.00" fill="#000000">AppComponent</text>
</g>
<!-- AppModule -->
<g id="node2" class="node">
<title>AppModule</title>
<polygon fill="#8dd3c7" stroke="#000000" points="385.6571,-187 382.6571,-191 361.6571,-191 358.6571,-187 302.3429,-187 302.3429,-151 385.6571,-151 385.6571,-187"/>
<text text-anchor="middle" x="344" y="-164.8" font-family="Times,serif" font-size="14.00" fill="#000000">AppModule</text>
</g>
<!-- AppComponent&#45;&gt;AppModule -->
<g id="edge1" class="edge">
<title>AppComponent&#45;&gt;AppModule</title>
<path fill="none" stroke="#000000" d="M593,-122.2843C593,-143.3211 593,-175 593,-175 593,-175 395.677,-175 395.677,-175"/>
<polygon fill="#000000" stroke="#000000" points="395.677,-171.5001 385.677,-175 395.677,-178.5001 395.677,-171.5001"/>
</g>
<!-- AppComponent  -->
<g id="node7" class="node">
<title>AppComponent </title>
<polygon fill="#80b1d3" stroke="#000000" points="398.439,-252 289.561,-252 289.561,-216 398.439,-216 398.439,-252"/>
<text text-anchor="middle" x="344" y="-229.8" font-family="Times,serif" font-size="14.00" fill="#000000">AppComponent </text>
</g>
<!-- AppModule&#45;&gt;AppComponent  -->
<g id="edge6" class="edge">
<title>AppModule&#45;&gt;AppComponent </title>
<path fill="none" stroke="#000000" stroke-dasharray="1,5" d="M344,-187.1061C344,-187.1061 344,-205.991 344,-205.991"/>
<polygon fill="#000000" stroke="#000000" points="340.5001,-205.9909 344,-215.991 347.5001,-205.991 340.5001,-205.9909"/>
</g>
<!-- BrowserModule -->
<g id="node3" class="node">
<title>BrowserModule</title>
<polygon fill="#8dd3c7" stroke="#000000" points="516.4734,-122 513.4734,-126 492.4734,-126 489.4734,-122 409.5266,-122 409.5266,-86 516.4734,-86 516.4734,-122"/>
<text text-anchor="middle" x="463" y="-99.8" font-family="Times,serif" font-size="14.00" fill="#000000">BrowserModule</text>
</g>
<!-- BrowserModule&#45;&gt;AppModule -->
<g id="edge2" class="edge">
<title>BrowserModule&#45;&gt;AppModule</title>
<path fill="none" stroke="#000000" d="M463,-122.0225C463,-139.3734 463,-163 463,-163 463,-163 395.9549,-163 395.9549,-163"/>
<polygon fill="#000000" stroke="#000000" points="395.955,-159.5001 385.9549,-163 395.9549,-166.5001 395.955,-159.5001"/>
</g>
<!-- FormsModule -->
<g id="node4" class="node">
<title>FormsModule</title>
<polygon fill="#8dd3c7" stroke="#000000" points="391.8288,-122 388.8288,-126 367.8288,-126 364.8288,-122 296.1712,-122 296.1712,-86 391.8288,-86 391.8288,-122"/>
<text text-anchor="middle" x="344" y="-99.8" font-family="Times,serif" font-size="14.00" fill="#000000">FormsModule</text>
</g>
<!-- FormsModule&#45;&gt;AppModule -->
<g id="edge3" class="edge">
<title>FormsModule&#45;&gt;AppModule</title>
<path fill="none" stroke="#000000" d="M344,-122.1061C344,-122.1061 344,-140.991 344,-140.991"/>
<polygon fill="#000000" stroke="#000000" points="340.5001,-140.9909 344,-150.991 347.5001,-140.991 340.5001,-140.9909"/>
</g>
<!-- HttpModule -->
<g id="node5" class="node">
<title>HttpModule</title>
<polygon fill="#8dd3c7" stroke="#000000" points="278.4387,-122 275.4387,-126 254.4387,-126 251.4387,-122 193.5613,-122 193.5613,-86 278.4387,-86 278.4387,-122"/>
<text text-anchor="middle" x="236" y="-99.8" font-family="Times,serif" font-size="14.00" fill="#000000">HttpModule</text>
</g>
<!-- HttpModule&#45;&gt;AppModule -->
<g id="edge4" class="edge">
<title>HttpModule&#45;&gt;AppModule</title>
<path fill="none" stroke="#000000" d="M236,-122.0225C236,-139.3734 236,-163 236,-163 236,-163 292.2444,-163 292.2444,-163"/>
<polygon fill="#000000" stroke="#000000" points="292.2444,-166.5001 302.2444,-163 292.2443,-159.5001 292.2444,-166.5001"/>
</g>
<!-- NgxIntlTelInputModule -->
<g id="node6" class="node">
<title>NgxIntlTelInputModule</title>
<polygon fill="#8dd3c7" stroke="#000000" points="175.8075,-122 172.8075,-126 151.8075,-126 148.8075,-122 24.1925,-122 24.1925,-86 175.8075,-86 175.8075,-122"/>
<text text-anchor="middle" x="100" y="-99.8" font-family="Times,serif" font-size="14.00" fill="#000000">NgxIntlTelInputModule</text>
</g>
<!-- NgxIntlTelInputModule&#45;&gt;AppModule -->
<g id="edge5" class="edge">
<title>NgxIntlTelInputModule&#45;&gt;AppModule</title>
<path fill="none" stroke="#000000" d="M100,-122.2843C100,-143.3211 100,-175 100,-175 100,-175 292.3321,-175 292.3321,-175"/>
<polygon fill="#000000" stroke="#000000" points="292.3322,-178.5001 302.3321,-175 292.3321,-171.5001 292.3322,-178.5001"/>
</g>
</g>
</svg>
